<svg width="180" height="195" viewBox="0 0 180 195" fill="none" xmlns="http://www.w3.org/2000/svg">
<mask id="mask0_30_120" style="mask-type:luminance" maskUnits="userSpaceOnUse" x="0" y="0" width="180" height="195">
<path d="M0 3.05176e-05L0 195L180 195L180 3.05176e-05L0 3.05176e-05Z" fill="white"/>
</mask>
<g mask="url(#mask0_30_120)">
<path d="M147.779 131.333L47.5534 190.43C43.7157 192.721 39.3494 194.199 34.7832 194.755C30.2167 195.31 25.5697 194.927 21.192 193.636C21.2109 193.617 21.2266 193.596 21.2387 193.573C21.2621 193.573 21.2621 193.552 21.2833 193.531C21.6552 193.115 22.027 192.72 22.3733 192.304C48.9897 162.259 59.2139 131.799 60.3739 103.754V103.691C60.7685 93.0962 59.9683 82.493 57.9858 72.0432C57.9841 72.0272 57.9758 72.0121 57.9624 72.0012C53.3471 48.9644 44.2764 26.8313 31.1612 6.60371C31.142 6.55315 31.1187 6.5041 31.091 6.45678C31.0777 6.44667 31.0692 6.43237 31.0677 6.41672C30.1647 5.00093 29.2595 3.62539 28.3799 2.31454C27.8912 1.60664 27.428 0.898751 26.9648 0.232831C34.1851 -0.61054 41.5003 0.929276 47.5534 4.56207L91.0464 30.1933C92.2305 31.2962 93.4134 32.4206 94.5947 33.5668C105.43 43.9191 115.034 55.2578 123.251 67.3989L123.274 67.4409L123.295 67.4619C123.305 67.4989 123.321 67.5342 123.342 67.5668C136.301 86.5398 144.572 107.791 147.594 129.883C147.664 130.362 147.734 130.862 147.779 131.333Z" fill="url(#paint0_linear_30_120)"/>
<path d="M166.143 120.554L147.779 131.34C147.734 130.861 147.664 130.361 147.594 129.882C144.572 107.791 136.301 86.5395 123.342 67.5665C123.321 67.534 123.305 67.4985 123.296 67.4615C123.296 67.4405 123.296 67.4405 123.274 67.4405L123.251 67.3986C121.764 65.1928 120.259 63.0272 118.683 60.9111L118.66 60.8901C111.506 51.194 103.456 42.0564 94.5949 33.574C93.4115 32.4292 92.2577 31.3244 91.07 30.2216C91.1444 30.2578 91.2153 30.2992 91.2825 30.3456L119.405 46.9192C119.452 46.9401 119.475 46.9611 119.522 46.9821L166.147 74.4451C172.142 77.9218 176.57 83.1954 178.643 89.3281C178.684 89.4079 178.716 89.4918 178.736 89.5781C180.633 95.2706 180.431 101.361 178.162 106.942C175.893 112.524 171.677 117.298 166.143 120.554Z" fill="url(#paint1_linear_30_120)"/>
<path d="M60.3742 103.691V103.754C60.3508 103.829 60.3429 103.906 60.3506 103.983C59.1671 131.965 48.9196 162.342 22.3733 192.304C22.027 192.72 21.6552 193.115 21.2833 193.531C21.2621 193.552 21.2621 193.573 21.2388 193.573C21.2267 193.596 21.211 193.617 21.1921 193.636C15.0122 191.849 9.62664 188.341 5.8163 183.62C2.00595 178.899 -0.0312247 173.211 9.64282e-05 167.381L9.64282e-05 27.612C-0.0184733 20.875 2.71669 14.366 7.6869 9.31929C12.6571 4.27281 19.5168 1.03995 26.965 0.232829C27.4282 0.898748 27.8912 1.60664 28.3799 2.31454C42.6134 23.5268 62.1079 60.7344 60.3742 103.691Z" fill="url(#paint2_linear_30_120)"/>
<g style="mix-blend-mode:multiply" opacity="0.16">
<path d="M166.143 120.554L147.779 131.34L47.5534 190.43C42.926 193.171 37.5572 194.735 32.0187 194.955C26.4804 195.174 20.9791 194.041 16.1005 191.677C11.2219 189.312 7.14835 185.804 4.31327 181.525C1.47817 177.247 -0.0124382 172.359 7.81791e-05 167.38L7.81791e-05 131.332C0.278417 137.703 0.488798 144.054 0.673649 150.425C0.8585 156.712 1.11342 163.001 1.20691 169.315L2.04193 172.459C2.41164 173.478 2.71335 174.52 3.1043 175.512C3.56749 176.491 3.91384 177.531 4.44715 178.468C4.91399 179.444 5.45637 180.391 6.07039 181.299C6.62707 182.236 7.34525 183.07 7.99541 183.944C8.69521 184.771 9.4539 185.557 10.2667 186.297C11.0634 187.05 11.9244 187.746 12.8419 188.378C13.7547 189.001 14.7154 189.564 15.7166 190.065C16.7184 190.558 17.7562 190.99 18.823 191.357C19.8863 191.727 20.9785 192.026 22.0907 192.252H22.1143C22.1967 192.276 22.2826 192.29 22.3693 192.294C22.3967 192.31 22.4296 192.318 22.4625 192.315C23.472 192.519 24.4936 192.672 25.5221 192.773C26.6763 192.898 27.8379 192.962 29.0005 192.963C31.3396 192.978 33.6756 192.803 35.9802 192.443C37.1382 192.252 38.2981 192.048 39.4348 191.777C40.4976 191.544 41.543 191.252 42.5647 190.901L61.9229 179.452L81.5362 167.897C94.6372 160.276 107.736 152.615 120.905 145.057C129.691 139.976 138.525 135 147.358 130.023C147.43 129.969 147.507 129.92 147.59 129.879C147.636 129.857 147.706 129.815 147.753 129.794C152.018 127.378 156.284 124.961 160.551 122.544L165.488 119.733L167.806 118.234L168.967 117.505L170.029 116.652C172.934 114.445 175.284 111.71 176.924 108.626C178.558 105.497 179.48 102.106 179.635 98.6529C179.833 95.1645 179.363 91.6716 178.245 88.3262C178.383 88.6582 178.521 88.9923 178.638 89.3262C178.68 89.406 178.711 89.4897 178.732 89.576C180.629 95.2683 180.429 101.359 178.16 106.941C175.892 112.523 171.677 117.297 166.143 120.554Z" fill="black"/>
</g>
<g style="mix-blend-mode:overlay" opacity="0.6">
<path d="M119.401 46.9114C116.201 45.2667 113.003 43.5799 109.85 41.8741C106.651 40.1454 103.404 38.4796 100.228 36.6879L94.5949 33.5663L90.6981 31.4007L81.1475 26.0905C74.8413 22.4899 68.5352 18.9085 62.2757 15.243C56.0609 11.6826 49.9524 8.01905 43.7737 4.36699L40.2955 3.60433L36.5857 2.93651L32.8314 2.47856C31.6011 2.43658 30.3263 2.28775 29.0982 2.31256H28.3801C26.1255 2.32401 23.8763 2.50528 21.6553 2.85446C20.4428 3.06435 19.2496 3.35629 18.0857 3.72836C16.9121 4.06609 15.7745 4.49922 14.6862 5.01955L13.0863 5.83049L11.5565 6.76736C10.5692 7.44797 9.6389 8.19288 8.77307 8.99599C7.04461 10.6377 5.55663 12.471 4.3452 14.4512C3.11481 16.4627 2.14252 18.5929 1.44705 20.8013C0.721039 23.0228 0.239255 25.3032 0.00860453 27.6093C-0.00996517 20.8721 2.7252 14.363 7.69542 9.31636C12.6656 4.26987 19.5253 1.03606 26.9735 0.230853C34.1935 -0.612518 41.5089 0.925394 47.562 4.55971L91.0551 30.1909L119.401 46.9114Z" fill="white"/>
</g>
<g style="mix-blend-mode:multiply" opacity="0.16">
<path d="M147.779 131.333C147.779 131.333 147.432 130.312 146.899 128.501C146.644 127.585 146.343 126.502 145.994 125.233C145.646 123.964 145.161 122.561 144.719 121.035C144.277 119.508 143.816 117.829 143.232 116.074C142.648 114.318 142.095 112.492 141.492 110.6C140.194 106.81 138.849 102.776 137.295 98.7924C136.531 96.8156 135.836 94.7854 134.977 92.8602C134.166 90.9235 133.448 88.9868 132.613 87.155C131.036 83.4686 129.459 80.055 128.068 77.1185C125.658 71.9972 123.78 68.3948 123.338 67.5628C136.297 86.5358 144.568 107.787 147.59 129.879C147.664 130.362 147.734 130.861 147.779 131.333Z" fill="black"/>
</g>
<g style="mix-blend-mode:multiply" opacity="0.16">
<path d="M60.3508 103.983C59.1673 131.965 48.9198 162.341 22.3735 192.304C22.0272 192.72 21.6554 193.115 21.2836 193.531C21.2623 193.552 21.2623 193.573 21.2389 193.573C21.4238 193.281 22.2588 192.012 23.625 190.012C24.4154 188.867 25.3651 187.494 26.4785 185.912C27.6365 184.37 28.7031 182.477 30.0247 180.518C30.6514 179.541 31.3229 178.499 31.9964 177.438C32.7146 176.375 33.4327 175.272 34.0829 174.106C35.4278 171.794 36.8641 169.359 38.3493 166.838C39.7155 164.278 41.1306 161.614 42.569 158.928C43.8651 156.18 45.2568 153.409 46.5104 150.599C47.6917 147.767 49.0834 144.978 50.0799 142.146C51.1423 139.314 52.2832 136.567 53.1395 133.817C54.0914 131.112 54.8796 128.446 55.6445 125.927C56.3627 123.407 57.0129 120.993 57.5695 118.764C58.0795 116.536 58.566 114.475 58.9124 112.644C59.3076 110.812 59.5392 109.209 59.7941 107.896C60.0958 105.896 60.2807 104.523 60.3508 103.983Z" fill="black"/>
</g>
<g style="mix-blend-mode:overlay" opacity="0.6">
<path d="M57.986 72.0425C57.9843 72.0263 57.9758 72.0114 57.9626 72.0006C53.3471 48.9637 44.2764 26.8306 31.1614 6.60306C31.1423 6.5525 31.1189 6.50326 31.0913 6.45613C33.5553 9.3856 35.8092 12.453 37.8394 15.6397C39.7389 18.4904 41.7574 21.9364 43.7886 25.6323C44.7617 27.5271 45.8283 29.4485 46.7632 31.4634C47.6981 33.4784 48.6882 35.5028 49.5466 37.5845C51.2676 41.6367 52.7611 45.7639 54.0213 49.9508C54.6714 51.9505 55.2026 53.9082 55.6212 55.7819C56.0397 57.6556 56.5008 59.3824 56.7345 61.0482C57.0129 62.693 57.2445 64.1927 57.476 65.5245C57.6375 66.8793 57.7076 68.0451 57.7778 69.024C57.9159 70.9378 57.986 72.0425 57.986 72.0425Z" fill="white"/>
</g>
<g style="mix-blend-mode:overlay" opacity="0.6">
<path d="M118.66 60.8828C111.506 51.1867 103.456 42.0491 94.5949 33.5667C93.4115 32.4219 92.2577 31.3171 91.07 30.2143C91.1444 30.2505 91.2153 30.2921 91.2825 30.3383C91.9326 30.7962 93.8789 32.1719 96.3372 34.2537C97.867 35.5225 99.5838 37.0643 101.345 38.751C103.107 40.4377 104.938 42.3115 106.725 44.1852C108.463 46.1219 110.201 48.0567 111.686 49.9514C113.092 51.6679 114.399 53.4472 115.604 55.2826C116.841 57.0468 117.865 58.9242 118.66 60.8828Z" fill="white"/>
</g>
</g>
<defs>
<linearGradient id="paint0_linear_30_120" x1="-363.126" y1="1885.6" x2="-130.082" y2="1863.65" gradientUnits="userSpaceOnUse">
<stop stop-color="#FCC400"/>
<stop offset="0.2" stop-color="#FBC000"/>
<stop offset="0.365" stop-color="#FBB500"/>
<stop offset="0.505" stop-color="#FBA300"/>
<stop offset="0.625" stop-color="#FB9D00"/>
<stop offset="0.81" stop-color="#FA8900"/>
<stop offset="0.96" stop-color="#FA6800"/>
</linearGradient>
<linearGradient id="paint1_linear_30_120" x1="-272.489" y1="1791.2" x2="-178.771" y2="1761.39" gradientUnits="userSpaceOnUse">
<stop stop-color="#F47521"/>
<stop offset="1" stop-color="#FC7D29"/>
</linearGradient>
<linearGradient id="paint2_linear_30_120" x1="-371.242" y1="1893.84" x2="-139.11" y2="1893.84" gradientUnits="userSpaceOnUse">
<stop stop-color="#FC7300"/>
<stop offset="1" stop-color="#F83C00"/>
</linearGradient>
</defs>
</svg>
